<svg width="23" height="34" viewBox="0 0 23 34" fill="none" xmlns="http://www.w3.org/2000/svg">
<path d="M22.464 2.86789H22.1597V1.32047C22.1597 1.03559 22.0025 0.804688 21.8085 0.804688H19.0928C18.8988 0.804688 18.7417 1.03565 18.7417 1.32047V2.86789H18.3437C18.1497 2.86789 17.9925 3.09885 17.9925 3.38367V5.03424C17.9925 5.31912 18.1497 5.55002 18.3437 5.55002H18.7417V7.09744C18.7417 7.38232 18.8989 7.61322 19.0928 7.61322C19.2868 7.61322 19.444 7.38225 19.444 7.09744V5.55009H21.4574V13.012C21.4574 16.1406 19.7245 18.6858 17.5945 18.6858H14.949V15.591H17.6881C18.6563 15.591 19.444 14.4341 19.444 13.0119V9.84835C19.444 9.56346 19.2868 9.33256 19.0929 9.33256C18.8989 9.33256 18.7417 9.56353 18.7417 9.84835V13.0119C18.7417 13.8652 18.2691 14.5594 17.6882 14.5594H14.9491V13.8373C14.9491 13.5524 14.7919 13.3215 14.5979 13.3215H13.4742C13.2802 13.3215 13.123 13.5524 13.123 13.8373V14.5594H12.3269V10.9144H12.7037C12.857 11.7072 13.354 12.2898 13.9422 12.2898C14.6522 12.2898 15.2299 11.4414 15.2299 10.3986C15.2299 9.35572 14.6522 8.50731 13.9422 8.50731C13.354 8.50731 12.857 9.08998 12.7037 9.8828H11.2477C11.0944 9.08998 10.5974 8.50731 10.0091 8.50731C9.29918 8.50731 8.72152 9.35572 8.72152 10.3986C8.72152 11.4414 9.29918 12.2898 10.0091 12.2898C10.5974 12.2898 11.0944 11.7072 11.2477 10.9144H11.6245V14.5594H10.8285V13.8373C10.8285 13.5524 10.6713 13.3215 10.4774 13.3215H9.3536C9.1596 13.3215 9.00244 13.5524 9.00244 13.8373V14.5594H6.076C3.5587 14.5594 1.51077 17.5674 1.51077 21.2648V23.6031C1.51077 23.888 1.66797 24.1189 1.86193 24.1189C2.05592 24.1189 2.21308 23.8879 2.21308 23.6031V21.2648C2.21308 18.1362 3.94599 15.591 6.07595 15.591H9.0024V18.6858H5.98231C5.01409 18.6858 4.22643 19.8427 4.22643 21.2649V29.1395H2.21317V26.3541C2.21317 26.0692 2.05597 25.8383 1.86201 25.8383C1.66802 25.8383 1.51086 26.0693 1.51086 26.3541V29.1395H1.11288C0.918878 29.1395 0.761719 29.3704 0.761719 29.6553V31.3058C0.761719 31.5907 0.918923 31.8216 1.11288 31.8216H1.51086V33.369C1.51086 33.6539 1.66806 33.8848 1.86201 33.8848H4.57772C4.77172 33.8848 4.92888 33.6538 4.92888 33.369V31.8216H5.23322C5.42722 31.8216 5.58437 31.5907 5.58437 31.3058V29.6553C5.58437 29.3704 5.42717 29.1395 5.23322 29.1395H4.92888V21.2649C4.92888 20.4116 5.40151 19.7175 5.9824 19.7175H9.00249V20.4395C9.00249 20.7244 9.15969 20.9553 9.35365 20.9553H10.4774C10.6714 20.9553 10.8286 20.7244 10.8286 20.4395V19.7175H13.1229V20.4395C13.1229 20.7244 13.2801 20.9553 13.474 20.9553H14.5978C14.7918 20.9553 14.9489 20.7244 14.9489 20.4395V19.7175H17.5944C20.1117 19.7175 22.1596 16.7094 22.1596 13.012V5.55009H22.464C22.658 5.55009 22.8151 5.31912 22.8151 5.0343V3.38373C22.8152 3.09885 22.658 2.86789 22.464 2.86789ZM13.9423 9.53894C14.265 9.53894 14.5276 9.92458 14.5276 10.3986C14.5276 10.8727 14.265 11.2583 13.9423 11.2583C13.6195 11.2583 13.357 10.8726 13.357 10.3986C13.357 9.92464 13.6195 9.53894 13.9423 9.53894ZM10.0091 11.2583C9.68638 11.2583 9.42383 10.8726 9.42383 10.3986C9.42383 9.92464 9.68638 9.53894 10.0091 9.53894C10.3319 9.53894 10.5944 9.92458 10.5944 10.3986C10.5944 10.8727 10.3319 11.2583 10.0091 11.2583ZM4.22652 32.8532H2.21317V31.8216H4.22656V32.8532H4.22652ZM4.88206 30.7901H1.46399V30.1711H4.88206V30.7901ZM10.1262 19.9238H9.70485V14.3532H10.1262V19.9238ZM13.1229 18.6859H10.8286V15.5911H13.1229V18.6859ZM14.2466 19.9238H13.8252V14.3532H14.2466V19.9238ZM19.444 1.83632H21.4574V2.86795H19.444V1.83632ZM22.1129 4.51846H18.6948V3.89952H22.1129V4.51846Z" fill="white"/>
</svg>
