<svg width="23" height="23" viewBox="0 0 23 23" fill="none" xmlns="http://www.w3.org/2000/svg">
<path d="M22.5112 10.5191L12.2782 1.06403C11.9801 0.785948 11.5047 0.785948 11.2066 1.06403L0.973987 10.5187C0.823344 10.6578 0.738281 10.8496 0.738281 11.05C0.738281 11.4578 1.08374 11.7883 1.50982 11.7883H2.86967V22.1253C2.86967 22.5331 3.21508 22.8637 3.64121 22.8637H9.04201C9.46814 22.8637 9.81355 22.5331 9.81355 22.1253V16.2185H13.6713V22.1253C13.6713 22.5331 14.0167 22.8637 14.4428 22.8637H19.8436C20.2697 22.8637 20.6151 22.5331 20.6151 22.1253V11.7883H21.975C22.1842 11.7883 22.3843 11.7071 22.5297 11.5631C22.8259 11.2699 22.8176 10.8025 22.5112 10.5191ZM20.6151 11.05C20.189 11.05 19.8436 11.3805 19.8436 11.7883V22.1253H14.4428V16.2185C14.4428 15.8107 14.0974 15.4801 13.6713 15.4801H9.81355C9.38742 15.4801 9.04201 15.8107 9.04201 16.2185V22.1253H3.64121V11.7883C3.64121 11.3805 3.2958 11.05 2.86967 11.05H1.50982L11.7424 1.59528L21.9788 11.05H20.6151Z" fill="white"/>
</svg>
