<svg width="23" height="23" viewBox="0 0 23 23" fill="none" xmlns="http://www.w3.org/2000/svg">
<path d="M22.3915 0.0546875H1.09325C0.999108 0.0546875 0.90882 0.0920861 0.84225 0.158656C0.77568 0.225226 0.738281 0.315515 0.738281 0.409659V10.0383C0.738548 10.1822 0.767886 10.3247 0.824537 10.457C0.881187 10.5894 0.963984 10.709 1.06796 10.8085C1.26522 10.9984 1.52856 11.104 1.80231 11.1032C1.81917 11.1032 1.83647 11.1027 1.85378 11.1018C2.1299 11.0867 2.38952 10.9656 2.5785 10.7637C2.76748 10.5618 2.87123 10.2948 2.86811 10.0183V3.24943C2.86811 3.15529 2.90551 3.065 2.97208 2.99843C3.03865 2.93186 3.12894 2.89446 3.22308 2.89446C3.31723 2.89446 3.40751 2.93186 3.47408 2.99843C3.54065 3.065 3.57805 3.15529 3.57805 3.24943V6.0892C3.57832 6.23318 3.60766 6.37562 3.66431 6.50798C3.72096 6.64034 3.80375 6.7599 3.90773 6.85949C4.01156 6.95971 4.13492 7.03747 4.27011 7.08793C4.40531 7.13839 4.54945 7.16047 4.69355 7.15278C4.96967 7.13767 5.22929 7.01655 5.41827 6.81467C5.60726 6.61279 5.711 6.34575 5.70788 6.06923V3.24943C5.70801 3.15533 5.74545 3.06511 5.81199 2.99857C5.87853 2.93203 5.96875 2.89459 6.06285 2.89446H6.41782C6.51193 2.89459 6.60214 2.93203 6.66868 2.99857C6.73523 3.06511 6.77267 3.15533 6.77279 3.24943V4.31434C6.67865 4.31434 6.58836 4.35174 6.52179 4.41831C6.45522 4.48488 6.41782 4.57517 6.41782 4.66932V12.5989C6.20554 12.6998 6.02619 12.8587 5.90054 13.0573C5.77489 13.2559 5.70809 13.4861 5.70788 13.7211V14.9635C5.70788 15.0576 5.74528 15.1479 5.81185 15.2145C5.87842 15.2811 5.96871 15.3185 6.06285 15.3185H8.54765V16.0284C8.54765 16.1225 8.58505 16.2128 8.65162 16.2794C8.71819 16.346 8.80848 16.3834 8.90262 16.3834H10.3225V20.8205C10.3229 21.1499 10.4539 21.4657 10.6868 21.6986C10.9197 21.9315 11.2355 22.0625 11.5649 22.0629H11.9199C12.2493 22.0625 12.5651 21.9315 12.798 21.6986C13.0309 21.4657 13.1619 21.1499 13.1623 20.8205V16.3834H14.5822C14.6763 16.3834 14.7666 16.346 14.8332 16.2794C14.8997 16.2128 14.9371 16.1225 14.9371 16.0284V15.3185H17.4219C17.5161 15.3185 17.6064 15.2811 17.6729 15.2145C17.7395 15.1479 17.7769 15.0576 17.7769 14.9635V13.7211C17.7767 13.4861 17.7099 13.2559 17.5843 13.0573C17.4586 12.8587 17.2792 12.6998 17.067 12.5989V4.66932C17.067 4.57517 17.0296 4.48488 16.963 4.41831C16.8964 4.35174 16.8061 4.31434 16.712 4.31434C16.7123 3.93947 16.8607 3.57991 17.1249 3.31396C17.3891 3.04801 17.7477 2.89723 18.1226 2.89446H18.1314C18.3147 2.89511 18.496 2.93198 18.665 3.00295C18.834 3.07392 18.9873 3.17759 19.116 3.308C19.3928 3.58271 19.5495 3.95589 19.5518 4.34585V6.79914C19.5516 6.93916 19.579 7.07783 19.6326 7.2072C19.6861 7.33657 19.7647 7.4541 19.8637 7.55304C19.9628 7.65198 20.0804 7.73039 20.2099 7.78376C20.3393 7.83713 20.478 7.86442 20.618 7.86406H20.6251C20.9082 7.85868 21.1779 7.74201 21.3756 7.53929C21.5733 7.33657 21.6833 7.06413 21.6816 6.78095V3.42692C21.6817 3.28574 21.7378 3.15037 21.8377 3.05054C21.9375 2.95071 22.0729 2.89458 22.2141 2.89446H22.3915C22.4857 2.89446 22.576 2.85706 22.6425 2.79049C22.7091 2.72392 22.7465 2.63363 22.7465 2.53949V0.409659C22.7465 0.315515 22.7091 0.225226 22.6425 0.158656C22.576 0.0920861 22.4857 0.0546875 22.3915 0.0546875ZM12.4523 20.8205C12.4522 20.9617 12.3961 21.0971 12.2963 21.1969C12.1964 21.2967 12.0611 21.3529 11.9199 21.353H11.5649C11.4237 21.3529 11.2884 21.2967 11.1885 21.1969C11.0887 21.0971 11.0326 20.9617 11.0325 20.8205V16.3834H12.4523V20.8205ZM14.2272 15.6734H9.25759V15.3185H14.2272V15.6734ZM17.067 13.7211V14.6085H6.41782V13.7211C6.41794 13.5799 6.47408 13.4445 6.57391 13.3447C6.67374 13.2449 6.8091 13.1887 6.95028 13.1886H16.5345C16.6757 13.1887 16.8111 13.2449 16.9109 13.3447C17.0107 13.4445 17.0668 13.5799 17.067 13.7211ZM15.2921 8.21903C15.198 8.21903 15.1077 8.25643 15.0411 8.323C14.9745 8.38957 14.9371 8.47986 14.9371 8.574V12.4787H14.2272V6.44417C14.2272 6.35003 14.1898 6.25974 14.1232 6.19317C14.0567 6.1266 13.9664 6.0892 13.8722 6.0892C13.7781 6.0892 13.6878 6.1266 13.6212 6.19317C13.5546 6.25974 13.5173 6.35003 13.5173 6.44417V12.4787H12.8073V7.86406C12.8073 7.76991 12.7699 7.67963 12.7033 7.61305C12.6368 7.54648 12.5465 7.50909 12.4523 7.50909C12.3582 7.50909 12.2679 7.54648 12.2013 7.61305C12.1348 7.67963 12.0974 7.76991 12.0974 7.86406V12.4787H11.3874V6.44417C11.3874 6.35003 11.35 6.25974 11.2835 6.19317C11.2169 6.1266 11.1266 6.0892 11.0325 6.0892C10.9383 6.0892 10.848 6.1266 10.7814 6.19317C10.7149 6.25974 10.6775 6.35003 10.6775 6.44417V12.4787H9.96754V7.15412C9.96754 7.05997 9.93014 6.96968 9.86357 6.90311C9.797 6.83654 9.70671 6.79914 9.61257 6.79914C9.51842 6.79914 9.42813 6.83654 9.36156 6.90311C9.29499 6.96968 9.25759 7.05997 9.25759 7.15412V12.4787H8.54765V9.28394C8.54765 9.1898 8.51025 9.09951 8.44368 9.03294C8.37711 8.96637 8.28682 8.92897 8.19268 8.92897C8.09854 8.92897 8.00825 8.96637 7.94168 9.03294C7.87511 9.09951 7.83771 9.1898 7.83771 9.28394V12.4787H7.12777V5.02429H8.40078L9.00645 5.6304C9.07312 5.69689 9.16344 5.73423 9.25759 5.73423C9.35175 5.73423 9.44207 5.69689 9.50874 5.6304L10.1144 5.02429H12.6604L13.2661 5.6304C13.3328 5.69689 13.4231 5.73423 13.5173 5.73423C13.6114 5.73423 13.7017 5.69689 13.7684 5.6304L14.323 5.07531L15.1798 5.36107C15.2692 5.39067 15.3666 5.38381 15.451 5.34199L16.0859 5.02429H16.357V12.4787H15.6471V8.574C15.6471 8.47986 15.6097 8.38957 15.5431 8.323C15.4765 8.25643 15.3863 8.21903 15.2921 8.21903ZM22.0366 2.19738C21.741 2.24038 21.4708 2.38825 21.2753 2.61399C21.0798 2.83973 20.972 3.12827 20.9716 3.42692V6.78095C20.9738 6.87683 20.9381 6.9697 20.8724 7.03952C20.8066 7.10933 20.7161 7.15049 20.6202 7.15412H20.6176C20.5709 7.1543 20.5246 7.14525 20.4814 7.12748C20.4382 7.10972 20.3989 7.08359 20.3658 7.0506C20.3328 7.01762 20.3066 6.97842 20.2887 6.93527C20.2708 6.89211 20.2616 6.84585 20.2617 6.79914V4.34585C20.2589 3.76693 20.027 3.21268 19.6165 2.80438C19.4221 2.60831 19.1907 2.4526 18.9359 2.34622C18.681 2.23984 18.4076 2.18489 18.1314 2.18452H18.1177C17.5553 2.18833 17.0173 2.4144 16.6209 2.8134C16.2246 3.2124 16.0021 3.75195 16.0021 4.31434C15.9469 4.3144 15.8926 4.32715 15.8432 4.35162L15.265 4.64092L14.3395 4.33254C14.2769 4.31171 14.2098 4.30869 14.1456 4.32381C14.0814 4.33893 14.0227 4.3716 13.9761 4.41817L13.5173 4.87742L13.0585 4.41817C12.9918 4.35165 12.9015 4.31431 12.8073 4.31434H9.96754C9.87337 4.31431 9.78304 4.35165 9.71639 4.41817L9.25759 4.87742L8.79879 4.41817C8.73214 4.35165 8.64182 4.31431 8.54765 4.31434H7.48274V3.24943C7.48236 2.96711 7.37005 2.69647 7.17042 2.49684C6.97079 2.29721 6.70014 2.18489 6.41782 2.18452H6.06285C5.78053 2.18489 5.50989 2.29721 5.31026 2.49684C5.11063 2.69647 4.99831 2.96711 4.99794 3.24943V6.06923C4.99965 6.16284 4.96572 6.2536 4.90303 6.32313C4.84033 6.39267 4.75356 6.43578 4.66027 6.44373C4.61226 6.44607 4.56427 6.43864 4.51921 6.42188C4.47416 6.40512 4.43298 6.37939 4.39817 6.34624C4.36336 6.31308 4.33564 6.27321 4.3167 6.22902C4.29776 6.18484 4.288 6.13727 4.288 6.0892V3.24943C4.288 2.967 4.1758 2.69613 3.97609 2.49642C3.77638 2.29671 3.50551 2.18452 3.22308 2.18452C2.94065 2.18452 2.66978 2.29671 2.47007 2.49642C2.27036 2.69613 2.15817 2.967 2.15817 3.24943V10.0183C2.15988 10.1119 2.12595 10.2027 2.06326 10.2722C2.00056 10.3417 1.91379 10.3848 1.8205 10.3928C1.77249 10.3951 1.7245 10.3877 1.67944 10.3709C1.63439 10.3542 1.59321 10.3284 1.5584 10.2953C1.52358 10.2621 1.49587 10.2223 1.47693 10.1781C1.45799 10.1339 1.44823 10.0863 1.44822 10.0383V0.76463H22.0366V2.19738Z" fill="white"/>
<path d="M14.9926 3.96087C15.275 3.96054 15.5457 3.84824 15.7453 3.6486C15.9449 3.44896 16.0572 3.17828 16.0576 2.89595V1.47607C16.0576 1.38192 16.0202 1.29163 15.9536 1.22506C15.887 1.15849 15.7967 1.12109 15.7026 1.12109C15.6084 1.12109 15.5182 1.15849 15.4516 1.22506C15.385 1.29163 15.3476 1.38192 15.3476 1.47607V2.89595C15.3476 2.9901 15.3102 3.08039 15.2437 3.14696C15.1771 3.21353 15.0868 3.25092 14.9926 3.25092C14.8985 3.25092 14.8082 3.21353 14.7416 3.14696C14.6751 3.08039 14.6377 2.9901 14.6377 2.89595V2.18601C14.6377 2.09186 14.6003 2.00158 14.5337 1.93501C14.4671 1.86844 14.3769 1.83104 14.2827 1.83104C14.1886 1.83104 14.0983 1.86844 14.0317 1.93501C13.9651 2.00158 13.9277 2.09186 13.9277 2.18601V2.89595C13.9281 3.17828 14.0404 3.44896 14.24 3.6486C14.4396 3.84824 14.7103 3.96054 14.9926 3.96087Z" fill="white"/>
</svg>
