<svg width="340" height="230" viewBox="0 0 340 230" fill="none" xmlns="http://www.w3.org/2000/svg">
<path fill-rule="evenodd" clip-rule="evenodd" d="M170.808 0L170.802 0.00573611L170.797 0.000854296L168.243 2.56426L50.5996 120.208L66.156 135.764L170.981 30.9395L275.839 135.797L291.243 120.393L240.6 69.7719V19.0011H222.6V51.78L186.362 15.5586L186.364 15.5563L170.808 0ZM189.6 97H152.6V161H189.6V97ZM6.2 228.498C8.8 229.231 11.4833 229.598 14.25 229.598C17.45 229.598 20.167 229.115 22.4 228.148C24.633 227.181 26.3 225.881 27.4 224.248C28.533 222.581 29.1 220.748 29.1 218.748C29.1 216.415 28.483 214.565 27.25 213.198C26.05 211.831 24.6 210.831 22.9 210.198C21.2 209.565 19.017 208.931 16.35 208.298C13.7833 207.731 11.8667 207.165 10.6 206.598C9.3667 205.998 8.75 205.098 8.75 203.898C8.75 202.698 9.2833 201.731 10.35 200.998C11.45 200.265 13.1333 199.898 15.4 199.898C18.633 199.898 21.867 200.815 25.1 202.648L27.6 196.498C26 195.498 24.133 194.731 22 194.198C19.867 193.665 17.683 193.398 15.45 193.398C12.25 193.398 9.5333 193.881 7.3 194.848C5.1 195.815 3.45 197.131 2.35 198.798C1.25 200.431 0.699997 202.265 0.699997 204.298C0.699997 206.631 1.3 208.498 2.5 209.898C3.7333 211.298 5.2 212.315 6.9 212.948C8.6 213.581 10.7833 214.215 13.45 214.848C15.1833 215.248 16.55 215.615 17.55 215.948C18.583 216.281 19.417 216.731 20.05 217.298C20.717 217.831 21.05 218.515 21.05 219.348C21.05 220.481 20.5 221.398 19.4 222.098C18.3 222.765 16.6 223.098 14.3 223.098C12.2333 223.098 10.1667 222.765 8.1 222.098C6.0333 221.431 4.25 220.548 2.75 219.448L0 225.548C1.5667 226.748 3.6333 227.731 6.2 228.498ZM43.935 221.498H60.185L63.285 228.998H71.785L56.135 193.998H48.135L32.535 228.998H40.835L43.935 221.498ZM52.085 201.948L57.635 215.348H46.535L52.085 201.948ZM86.016 209.748V200.498H104.366V193.998H77.916V228.998H86.016V216.248H102.216V209.748H86.016ZM139.45 228.998V222.498H120.4V214.398H136.65V208.098H120.4V200.498H138.8V193.998H112.35V228.998H139.45ZM180.495 228.998V193.998H172.395V207.798H156.495V193.998H148.395V228.998H156.495V214.648H172.395V228.998H180.495ZM198.375 227.248C201.309 228.815 204.592 229.598 208.225 229.598C211.859 229.598 215.125 228.815 218.025 227.248C220.925 225.681 223.209 223.531 224.875 220.798C226.542 218.031 227.375 214.931 227.375 211.498C227.375 208.065 226.542 204.981 224.875 202.248C223.209 199.481 220.925 197.315 218.025 195.748C215.125 194.181 211.859 193.398 208.225 193.398C204.592 193.398 201.309 194.181 198.375 195.748C195.475 197.315 193.192 199.481 191.525 202.248C189.892 204.981 189.075 208.065 189.075 211.498C189.075 214.931 189.892 218.031 191.525 220.798C193.192 223.531 195.475 225.681 198.375 227.248ZM213.825 221.298C212.159 222.231 210.292 222.698 208.225 222.698C206.159 222.698 204.292 222.231 202.625 221.298C200.959 220.331 199.642 218.998 198.675 217.298C197.742 215.598 197.275 213.665 197.275 211.498C197.275 209.331 197.742 207.398 198.675 205.698C199.642 203.998 200.959 202.681 202.625 201.748C204.292 200.781 206.159 200.298 208.225 200.298C210.292 200.298 212.159 200.781 213.825 201.748C215.492 202.681 216.792 203.998 217.725 205.698C218.692 207.398 219.175 209.331 219.175 211.498C219.175 213.665 218.692 215.598 217.725 217.298C216.792 218.998 215.492 220.331 213.825 221.298ZM239.813 225.448C242.613 228.215 246.513 229.598 251.513 229.598C256.513 229.598 260.396 228.215 263.163 225.448C265.963 222.681 267.363 218.731 267.363 213.598V193.998H259.363V213.298C259.363 216.531 258.696 218.915 257.363 220.448C256.03 221.948 254.096 222.698 251.563 222.698C246.363 222.698 243.763 219.565 243.763 213.298V193.998H235.663V213.598C235.663 218.731 237.046 222.681 239.813 225.448ZM281.317 228.498C283.917 229.231 286.601 229.598 289.367 229.598C292.567 229.598 295.284 229.115 297.517 228.148C299.751 227.181 301.417 225.881 302.517 224.248C303.651 222.581 304.217 220.748 304.217 218.748C304.217 216.415 303.601 214.565 302.367 213.198C301.167 211.831 299.717 210.831 298.017 210.198C296.317 209.565 294.134 208.931 291.467 208.298C288.901 207.731 286.984 207.165 285.717 206.598C284.484 205.998 283.867 205.098 283.867 203.898C283.867 202.698 284.401 201.731 285.467 200.998C286.567 200.265 288.251 199.898 290.517 199.898C293.751 199.898 296.984 200.815 300.217 202.648L302.717 196.498C301.117 195.498 299.251 194.731 297.117 194.198C294.984 193.665 292.801 193.398 290.567 193.398C287.367 193.398 284.651 193.881 282.417 194.848C280.217 195.815 278.567 197.131 277.467 198.798C276.367 200.431 275.817 202.265 275.817 204.298C275.817 206.631 276.417 208.498 277.617 209.898C278.851 211.298 280.317 212.315 282.017 212.948C283.717 213.581 285.901 214.215 288.567 214.848C290.301 215.248 291.667 215.615 292.667 215.948C293.701 216.281 294.534 216.731 295.167 217.298C295.834 217.831 296.167 218.515 296.167 219.348C296.167 220.481 295.617 221.398 294.517 222.098C293.417 222.765 291.717 223.098 289.417 223.098C287.351 223.098 285.284 222.765 283.217 222.098C281.151 221.431 279.367 220.548 277.867 219.448L275.117 225.548C276.684 226.748 278.751 227.731 281.317 228.498ZM339.352 228.998V222.498H320.302V214.398H336.552V208.098H320.302V200.498H338.702V193.998H312.252V228.998H339.352Z" fill="white"/>
</svg>
