<svg width="24" height="36" viewBox="0 0 24 36" fill="none" xmlns="http://www.w3.org/2000/svg">
<path d="M20.7248 15.1715C22.1419 13.2031 23.4801 11.3438 23.4801 9.46049C23.4801 6.97006 22.2821 4.58163 20.1497 2.82063C18.0172 1.05963 15.125 0.0703125 12.1092 0.0703125C9.09344 0.0703125 6.20121 1.05963 4.06875 2.82063C1.93628 4.58163 0.738281 6.97006 0.738281 9.46049C0.738281 11.3438 2.0765 13.2031 3.4936 15.1715C4.76714 16.9415 6.08332 18.7703 6.42374 20.6536V22.372H5.71306C5.52457 22.372 5.34381 22.4338 5.21053 22.5439C5.07725 22.6539 5.00238 22.8032 5.00238 22.9589V24.7195C5.0023 24.8528 5.05719 24.9822 5.15801 25.0863L7.08112 27.0718C6.67372 27.0782 6.2772 27.1815 5.93909 27.3693C5.60097 27.5571 5.33558 27.8215 5.17471 28.1306C5.01384 28.4398 4.96432 28.7807 5.03207 29.1125C5.09982 29.4443 5.28197 29.753 5.55671 30.0015C5.29778 30.2354 5.12079 30.5231 5.04468 30.8338C4.96858 31.1444 4.99622 31.4663 5.12466 31.7649C5.2531 32.0636 5.47749 32.3278 5.77381 32.5292C6.07012 32.7306 6.4272 32.8617 6.8068 32.9083L9.4747 35.1115C9.60795 35.2216 9.78868 35.2834 9.97715 35.2835H14.2412C14.4297 35.2834 14.6105 35.2216 14.7437 35.1115L17.4116 32.9083C17.7912 32.8617 18.1483 32.7306 18.4446 32.5292C18.7409 32.3278 18.9653 32.0636 19.0937 31.7649C19.2222 31.4663 19.2498 31.1444 19.1737 30.8338C19.0976 30.5231 18.9206 30.2354 18.6617 30.0015C18.9364 29.753 19.1186 29.4443 19.1863 29.1125C19.2541 28.7807 19.2046 28.4398 19.0437 28.1306C18.8828 27.8215 18.6174 27.5571 18.2793 27.3693C17.9412 27.1815 17.5447 27.0782 17.1373 27.0718L19.0604 25.0863C19.1612 24.9822 19.2161 24.8528 19.216 24.7195V22.9589C19.216 22.8032 19.1411 22.6539 19.0079 22.5439C18.8746 22.4338 18.6938 22.372 18.5053 22.372H17.7947V20.6536C18.1351 18.7703 19.4513 16.9415 20.7248 15.1715ZM13.947 34.1097H10.2714L8.85001 32.9359H15.3684L13.947 34.1097ZM17.084 31.7622H7.13442C6.94594 31.7622 6.76517 31.7003 6.63189 31.5903C6.49861 31.4802 6.42374 31.3309 6.42374 31.1753C6.42374 31.0196 6.49861 30.8703 6.63189 30.7603C6.76517 30.6502 6.94594 30.5884 7.13442 30.5884H17.084C17.2725 30.5884 17.4532 30.6502 17.5865 30.7603C17.7198 30.8703 17.7947 31.0196 17.7947 31.1753C17.7947 31.3309 17.7198 31.4802 17.5865 31.5903C17.4532 31.7003 17.2725 31.7622 17.084 31.7622ZM17.7947 28.8277C17.7947 28.9834 17.7198 29.1327 17.5865 29.2427C17.4532 29.3528 17.2725 29.4146 17.084 29.4146H7.13442C6.94594 29.4146 6.76517 29.3528 6.63189 29.2427C6.49861 29.1327 6.42374 28.9834 6.42374 28.8277C6.42374 28.6721 6.49861 28.5228 6.63189 28.4127C6.76517 28.3027 6.94594 28.2408 7.13442 28.2408H17.084C17.2725 28.2408 17.4532 28.3027 17.5865 28.4127C17.7198 28.5228 17.7947 28.6721 17.7947 28.8277ZM17.7947 24.5135L15.3215 27.0671H8.89691L6.42374 24.5135V23.5458H17.7947V24.5135ZM11.2791 18.5273L9.97715 16.9139V15.9162H14.2412V16.9139L12.9393 18.5267C12.862 18.6227 12.8205 18.7354 12.8199 18.8507V22.372H11.3985V18.8507C11.3983 18.7348 11.3568 18.6215 11.2791 18.5249V18.5273ZM16.3804 20.5303C16.3757 20.5572 16.3733 20.5842 16.3733 20.6113V22.372H14.2412V19.0267L15.5432 17.414C15.6205 17.3179 15.662 17.2053 15.6626 17.09V15.9162H16.3733C16.795 15.9162 17.2072 15.813 17.5578 15.6195C17.9084 15.426 18.1817 15.1511 18.343 14.8294C18.5044 14.5076 18.5466 14.1536 18.4644 13.8121C18.3821 13.4706 18.179 13.1568 17.8809 12.9106C17.5827 12.6644 17.2028 12.4967 16.7892 12.4288C16.3757 12.3608 15.947 12.3957 15.5574 12.5289C15.1678 12.6622 14.8348 12.8879 14.6006 13.1774C14.3663 13.4669 14.2412 13.8074 14.2412 14.1556V14.7425H9.97715V14.1556C9.97715 13.8074 9.85211 13.4669 9.61784 13.1774C9.38356 12.8879 9.05058 12.6622 8.661 12.5289C8.27142 12.3957 7.84274 12.3608 7.42916 12.4288C7.01559 12.4967 6.63569 12.6644 6.33752 12.9106C6.03935 13.1568 5.83629 13.4706 5.75402 13.8121C5.67176 14.1536 5.71398 14.5076 5.87535 14.8294C6.03672 15.1511 6.30999 15.426 6.6606 15.6195C7.01122 15.813 7.42343 15.9162 7.8451 15.9162H8.55579V17.09C8.55601 17.2059 8.59753 17.3192 8.67518 17.4157L9.97715 19.0267V22.372H7.8451V20.6113C7.84521 20.5834 7.84284 20.5556 7.838 20.528C7.46986 18.3982 6.06911 16.4532 4.71526 14.5717C3.40121 12.7471 2.15965 11.021 2.15965 9.46049C2.15965 7.28136 3.2079 5.19149 5.0738 3.65061C6.93971 2.10974 9.47041 1.24408 12.1092 1.24408C14.748 1.24408 17.2787 2.10974 19.1446 3.65061C21.0105 5.19149 22.0588 7.28136 22.0588 9.46049C22.0588 11.021 20.8172 12.7471 19.5003 14.5717C18.15 16.4532 16.7485 18.3982 16.3804 20.528V20.5303ZM15.6626 14.7425V14.1556C15.6626 14.0395 15.7043 13.926 15.7824 13.8295C15.8605 13.733 15.9715 13.6578 16.1013 13.6134C16.2312 13.5689 16.3741 13.5573 16.5119 13.58C16.6498 13.6026 16.7764 13.6585 16.8758 13.7406C16.9752 13.8227 17.0429 13.9272 17.0703 14.0411C17.0977 14.1549 17.0837 14.2729 17.0299 14.3802C16.9761 14.4874 16.885 14.5791 16.7681 14.6436C16.6513 14.708 16.5139 14.7425 16.3733 14.7425H15.6626ZM8.55579 14.1556V14.7425H7.8451C7.70455 14.7425 7.56714 14.708 7.45027 14.6436C7.3334 14.5791 7.24231 14.4874 7.18852 14.3802C7.13473 14.2729 7.12066 14.1549 7.14808 14.0411C7.1755 13.9272 7.24319 13.8227 7.34258 13.7406C7.44197 13.6585 7.5686 13.6026 7.70646 13.58C7.84432 13.5573 7.98721 13.5689 8.11707 13.6134C8.24693 13.6578 8.35793 13.733 8.43602 13.8295C8.51411 13.926 8.55579 14.0395 8.55579 14.1556Z" fill="white"/>
</svg>
